<?xml version="1.0" encoding="UTF-8" standalone="no"?>
<!-- Created with Inkscape (http://www.inkscape.org/) -->

<svg
   width="74.0mm"
   height="52.0mm"
   viewBox="0 0 74.0 52.0"
   id="SVGRoot"
   version="1.1"
   inkscape:version="1.3 (0e150ed6c4, 2023-07-21)"
   sodipodi:docname="drawing.svg"
   xmlns:inkscape="http://www.inkscape.org/namespaces/inkscape"
   xmlns:sodipodi="http://sodipodi.sourceforge.net/DTD/sodipodi-0.dtd"
   xmlns="http://www.w3.org/2000/svg"
   xmlns:svg="http://www.w3.org/2000/svg">
  <sodipodi:namedview
     inkscape:document-units="mm"
     inkscape:zoom="2.625845"
     inkscape:cx="132.9096"
     inkscape:cy="98.825331"
     id="namedview1"
     pagecolor="#2d2d2d"
     bordercolor="#000000"
     borderopacity="0.25"
     inkscape:showpageshadow="2"
     inkscape:pageopacity="0.0"
     inkscape:pagecheckerboard="0"
     inkscape:deskcolor="#d1d1d1"
     inkscape:window-width="1440"
     inkscape:window-height="863"
     inkscape:window-x="0"
     inkscape:window-y="0"
     inkscape:window-maximized="1"
     inkscape:current-layer="SVGRoot" />
  <defs
     id="defs1">
    <marker
       style="overflow:visible"
       id="ArrowWide"
       refX="0"
       refY="0"
       orient="auto-start-reverse"
       inkscape:stockid="Wide arrow"
       markerWidth="1"
       markerHeight="1"
       viewBox="0 0 1 1"
       inkscape:isstock="true"
       inkscape:collect="always"
       preserveAspectRatio="xMidYMid">
      <path
         style="fill:none;stroke:context-stroke;stroke-width:1;stroke-linecap:butt"
         d="M 3,-3 0,0 3,3"
         transform="rotate(180,0.125,0)"
         sodipodi:nodetypes="ccc"
         id="path15" />
    </marker>
    <inkscape:path-effect
       effect="bspline"
       id="path-effect13"
       is_visible="true"
       lpeversion="1.3"
       weight="33.333333"
       steps="2"
       helper_size="0"
       apply_no_weight="true"
       apply_with_weight="true"
       only_selected="false"
       uniform="false" />
    <inkscape:path-effect
       effect="bspline"
       id="path-effect7"
       is_visible="true"
       lpeversion="1.3"
       weight="33.333333"
       steps="2"
       helper_size="0"
       apply_no_weight="true"
       apply_with_weight="true"
       only_selected="false"
       uniform="false" />
    <rect
       x="27.867411"
       y="55.544185"
       width="24.786029"
       height="15.931301"
       id="rect6" />
    <marker
       style="overflow:visible"
       id="ArrowTriangleStylized"
       refX="0"
       refY="0"
       orient="auto-start-reverse"
       inkscape:stockid="Stylized triangle arrow"
       markerWidth="1"
       markerHeight="1"
       viewBox="0 0 1 1"
       inkscape:isstock="true"
       inkscape:collect="always"
       preserveAspectRatio="xMidYMid">
      <path
         transform="scale(0.5)"
         style="fill:context-stroke;fill-rule:evenodd;stroke:context-stroke;stroke-width:1pt"
         d="m 6,0 c -3,1 -7,3 -9,5 0,0 0,-4 2,-5 -2,-1 -2,-5 -2,-5 2,2 6,4 9,5 z"
         id="path4" />
    </marker>
    <marker
       style="overflow:visible"
       id="ArrowTriangleStylized-6"
       refX="0"
       refY="0"
       orient="auto-start-reverse"
       inkscape:stockid="Stylized triangle arrow"
       markerWidth="1"
       markerHeight="1"
       viewBox="0 0 1 1"
       inkscape:isstock="true"
       inkscape:collect="always"
       preserveAspectRatio="xMidYMid">
      <path
         transform="scale(0.5)"
         style="fill:context-stroke;fill-rule:evenodd;stroke:context-stroke;stroke-width:1pt"
         d="m 6,0 c -3,1 -7,3 -9,5 0,0 0,-4 2,-5 -2,-1 -2,-5 -2,-5 2,2 6,4 9,5 z"
         id="path4-1" />
    </marker>
    <marker
       style="overflow:visible"
       id="ArrowTriangleStylized-6-5"
       refX="0"
       refY="0"
       orient="auto-start-reverse"
       inkscape:stockid="Stylized triangle arrow"
       markerWidth="1"
       markerHeight="1"
       viewBox="0 0 1 1"
       inkscape:isstock="true"
       inkscape:collect="always"
       preserveAspectRatio="xMidYMid">
      <path
         transform="scale(0.5)"
         style="fill:context-stroke;fill-rule:evenodd;stroke:context-stroke;stroke-width:1pt"
         d="m 6,0 c -3,1 -7,3 -9,5 0,0 0,-4 2,-5 -2,-1 -2,-5 -2,-5 2,2 6,4 9,5 z"
         id="path4-1-9" />
    </marker>
    <marker
       style="overflow:visible"
       id="ArrowTriangleStylized-2"
       refX="0"
       refY="0"
       orient="auto-start-reverse"
       inkscape:stockid="Stylized triangle arrow"
       markerWidth="1"
       markerHeight="1"
       viewBox="0 0 1 1"
       inkscape:isstock="true"
       inkscape:collect="always"
       preserveAspectRatio="xMidYMid">
      <path
         transform="scale(0.5)"
         style="fill:context-stroke;fill-rule:evenodd;stroke:context-stroke;stroke-width:1pt"
         d="m 6,0 c -3,1 -7,3 -9,5 0,0 0,-4 2,-5 -2,-1 -2,-5 -2,-5 2,2 6,4 9,5 z"
         id="path4-2" />
    </marker>
    <marker
       style="overflow:visible"
       id="ArrowTriangleStylized-2-2"
       refX="0"
       refY="0"
       orient="auto-start-reverse"
       inkscape:stockid="Stylized triangle arrow"
       markerWidth="1"
       markerHeight="1"
       viewBox="0 0 1 1"
       inkscape:isstock="true"
       inkscape:collect="always"
       preserveAspectRatio="xMidYMid">
      <path
         transform="scale(0.5)"
         style="fill:context-stroke;fill-rule:evenodd;stroke:context-stroke;stroke-width:1pt"
         d="m 6,0 c -3,1 -7,3 -9,5 0,0 0,-4 2,-5 -2,-1 -2,-5 -2,-5 2,2 6,4 9,5 z"
         id="path4-2-7" />
    </marker>
  </defs>
  <g
     inkscape:label="Layer 1"
     inkscape:groupmode="layer"
     id="layer1">
    <ellipse
       style="fill:none;stroke:#ffffff;stroke-width:0.264583;stroke-opacity:1"
       id="path1"
       cx="63.676689"
       cy="26.454739"
       rx="6.2918911"
       ry="6.4131494" />
    <ellipse
       style="fill:none;stroke:#ffffff;stroke-width:0.264583;stroke-opacity:1"
       id="path1-7"
       cx="45.847088"
       cy="27.182934"
       rx="6.2918911"
       ry="6.4131494" />
    <ellipse
       style="fill:none;stroke:#ffffff;stroke-width:0.264583;stroke-opacity:1"
       id="path1-5"
       cx="27.957909"
       cy="26.918343"
       rx="6.2918911"
       ry="6.4131494" />
    <ellipse
       style="fill:none;stroke:#ffffff;stroke-width:0.264583;stroke-opacity:1"
       id="path1-7-6"
       cx="10.128315"
       cy="27.117371"
       rx="6.2918911"
       ry="6.4131494" />
    <path
       style="fill:none;stroke:#ffffff;stroke-width:0.264583;stroke-opacity:1"
       d="m 16.440765,27.174761 5.209987,0.03939"
       id="path2" />
    <path
       style="fill:none;stroke:#ffffff;stroke-width:0.264583;stroke-opacity:1"
       d="m 34.132262,27.384373 5.209987,0.03939"
       id="path2-1" />
    <path
       style="fill:none;stroke:#ffffff;stroke-width:0.264583;stroke-opacity:1"
       d="m 52.38851,27.384375 5.209987,0.03939"
       id="path2-1-0" />
    <path
       style="fill:none;stroke:#ffffff;stroke-width:0.265;stroke-dasharray:none;stroke-opacity:1;marker-end:url(#ArrowTriangleStylized)"
       d="M 62.121244,36.4495 62.236552,17.517073"
       id="path3" />
    <path
       style="fill:none;stroke:#ffffff;stroke-width:0.265;stroke-dasharray:none;stroke-opacity:1;marker-end:url(#ArrowTriangleStylized-6)"
       d="m 65.321724,16.669561 0.115308,18.932427"
       id="path3-7" />
    <path
       style="fill:none;stroke:#ffffff;stroke-width:0.265;stroke-dasharray:none;stroke-opacity:1;marker-end:url(#ArrowTriangleStylized-2)"
       d="M 43.890472,36.410913 44.00578,17.478485"
       id="path3-9" />
    <path
       style="fill:none;stroke:#d08a28;stroke-width:0.265;stroke-dasharray:none;stroke-opacity:1;marker-end:url(#ArrowTriangleStylized-2-2)"
       d="M 26.42797,36.410914 26.543278,17.478485"
       id="path3-9-9" />
    <path
       style="fill:none;stroke:#ffffff;stroke-width:0.265;stroke-dasharray:none;stroke-opacity:1;marker-end:url(#ArrowTriangleStylized-6-5)"
       d="M 47.090952,16.630973 47.20626,35.563401"
       id="path3-7-7" />
  </g>
  <g
     inkscape:label=""
     transform="translate(2.0676162,12.790919)"
     id="g6"
     style="fill:#ffffff">
    <g
       fill="#000000"
       fill-opacity="1"
       id="g3"
       transform="matrix(0.352778,0,0,0.352778,-0.807817,-0.694708)"
       style="fill:#ffffff">
      <g
         id="use2"
         transform="translate(1.993,8.5629997)"
         style="fill:#ffffff">
        <path
           d="m 2.828125,-6.234375 c 0,-0.203125 -0.140625,-0.359375 -0.359375,-0.359375 -0.28125,0 -0.546875,0.265625 -0.546875,0.53125 0,0.1875 0.140625,0.359375 0.375,0.359375 0.234375,0 0.53125,-0.234375 0.53125,-0.53125 z m -0.75,3.75 c 0.109375,-0.28125 0.109375,-0.3125 0.21875,-0.578125 0.078125,-0.203125 0.125,-0.34375 0.125,-0.53125 0,-0.4375 -0.3125,-0.8125 -0.8125,-0.8125 -0.9375,0 -1.3125,1.453125 -1.3125,1.53125 0,0.109375 0.09375,0.109375 0.109375,0.109375 0.109375,0 0.109375,-0.03125 0.15625,-0.1875 0.28125,-0.9375 0.671875,-1.234375 1.015625,-1.234375 0.078125,0 0.25,0 0.25,0.3125 0,0.21875 -0.078125,0.421875 -0.109375,0.53125 -0.078125,0.25 -0.53125,1.40625 -0.6875,1.84375 -0.109375,0.25 -0.234375,0.578125 -0.234375,0.796875 0,0.46875 0.34375,0.8125 0.8125,0.8125 0.9375,0 1.3125,-1.4375 1.3125,-1.53125 0,-0.109375 -0.09375,-0.109375 -0.125,-0.109375 -0.09375,0 -0.09375,0.03125 -0.140625,0.1875 -0.1875,0.625 -0.515625,1.234375 -1.015625,1.234375 -0.171875,0 -0.25,-0.09375 -0.25,-0.328125 0,-0.25 0.0625,-0.390625 0.296875,-1 z m 0,0"
           id="path6"
           style="fill:#ffffff" />
      </g>
    </g>
    <g
       fill="#000000"
       fill-opacity="1"
       id="g4"
       transform="matrix(0.352778,0,0,0.352778,-0.807817,-0.694708)"
       style="fill:#ffffff">
      <g
         id="use3"
         transform="translate(8.1920004,8.5629997)"
         style="fill:#ffffff">
        <path
           d="m 1.90625,-3.765625 c 0,-0.296875 -0.234375,-0.53125 -0.515625,-0.53125 -0.296875,0 -0.53125,0.234375 -0.53125,0.53125 0,0.28125 0.234375,0.53125 0.53125,0.53125 0.28125,0 0.515625,-0.25 0.515625,-0.53125 z m 0,3.234375 c 0,-0.28125 -0.234375,-0.53125 -0.515625,-0.53125 -0.296875,0 -0.53125,0.25 -0.53125,0.53125 C 0.859375,-0.234375 1.09375,0 1.390625,0 1.671875,0 1.90625,-0.234375 1.90625,-0.53125 Z m 0,0"
           id="path5"
           style="fill:#ffffff" />
      </g>
    </g>
  </g>
  <text
     xml:space="preserve"
     style="font-size:3.175px;fill:none;stroke:#000000;stroke-width:0.264999;stroke-dasharray:none;stroke-opacity:1"
     x="81.26931"
     y="8.7872381"
     id="text8"><tspan
       sodipodi:role="line"
       id="tspan8"
       style="stroke-width:0.265"
       x="81.26931"
       y="8.7872381" /></text>
  <g
     inkscape:label=""
     transform="translate(9.5347109,12.880072)"
     id="g8"
     style="fill:#ffffff">
    <g
       fill="#000000"
       fill-opacity="1"
       id="g2"
       transform="matrix(0.352778,0,0,0.352778,-0.851914,-0.624902)"
       style="fill:#ffffff">
      <g
         id="use1"
         transform="translate(1.993,8.4119997)"
         style="fill:#ffffff">
        <path
           d="m 2.890625,-3.515625 c 0.8125,-0.265625 1.390625,-0.953125 1.390625,-1.75 0,-0.8125 -0.875,-1.375 -1.828125,-1.375 -1,0 -1.765625,0.59375 -1.765625,1.359375 0,0.328125 0.21875,0.515625 0.515625,0.515625 0.296875,0 0.5,-0.21875 0.5,-0.515625 0,-0.484375 -0.46875,-0.484375 -0.609375,-0.484375 0.296875,-0.5 0.953125,-0.625 1.3125,-0.625 0.421875,0 0.96875,0.21875 0.96875,1.109375 0,0.125 -0.03125,0.703125 -0.28125,1.140625 C 2.796875,-3.65625 2.453125,-3.625 2.203125,-3.625 2.125,-3.609375 1.890625,-3.59375 1.8125,-3.59375 c -0.078125,0.015625 -0.140625,0.03125 -0.140625,0.125 0,0.109375 0.0625,0.109375 0.234375,0.109375 h 0.4375 c 0.8125,0 1.1875,0.671875 1.1875,1.65625 0,1.359375 -0.6875,1.640625 -1.125,1.640625 -0.4375,0 -1.1875,-0.171875 -1.53125,-0.75 0.34375,0.046875 0.65625,-0.171875 0.65625,-0.546875 0,-0.359375 -0.265625,-0.5625 -0.546875,-0.5625 -0.25,0 -0.5625,0.140625 -0.5625,0.578125 0,0.90625 0.921875,1.5625 2.015625,1.5625 1.21875,0 2.125,-0.90625 2.125,-1.921875 0,-0.8125 -0.640625,-1.59375 -1.671875,-1.8125 z m 0,0"
           id="path8"
           style="fill:#ffffff" />
      </g>
    </g>
  </g>
  <g
     inkscape:label=""
     transform="translate(27.479427,12.817625)"
     id="g11"
     style="fill:#ffffff">
    <g
       fill="#000000"
       fill-opacity="1"
       id="g10"
       transform="matrix(0.352778,0,0,0.352778,-0.879475,-0.624902)"
       style="fill:#ffffff">
      <g
         id="g9"
         transform="translate(1.993,8.4119997)"
         style="fill:#ffffff">
        <path
           d="m 1.265625,-0.765625 1.0625,-1.03125 c 1.546875,-1.375 2.140625,-1.90625 2.140625,-2.90625 0,-1.140625 -0.890625,-1.9375 -2.109375,-1.9375 -1.125,0 -1.859375,0.921875 -1.859375,1.8125 0,0.546875 0.5,0.546875 0.53125,0.546875 0.171875,0 0.515625,-0.109375 0.515625,-0.53125 0,-0.25 -0.1875,-0.515625 -0.53125,-0.515625 -0.078125,0 -0.09375,0 -0.125,0.015625 0.21875,-0.65625 0.765625,-1.015625 1.34375,-1.015625 0.90625,0 1.328125,0.8125 1.328125,1.625 C 3.5625,-3.90625 3.078125,-3.125 2.515625,-2.5 l -1.90625,2.125 C 0.5,-0.265625 0.5,-0.234375 0.5,0 H 4.203125 L 4.46875,-1.734375 H 4.234375 C 4.171875,-1.4375 4.109375,-1 4,-0.84375 3.9375,-0.765625 3.28125,-0.765625 3.0625,-0.765625 Z m 0,0"
           id="path9"
           style="fill:#ffffff" />
      </g>
    </g>
  </g>
  <g
     inkscape:label=""
     transform="translate(44.941938,12.817625)"
     id="g14"
     style="fill:#ffffff">
    <g
       fill="#000000"
       fill-opacity="1"
       id="g13"
       transform="matrix(0.352778,0,0,0.352778,-1.01728,-0.624902)"
       style="fill:#ffffff">
      <g
         id="g12"
         transform="translate(1.993,8.4119997)"
         style="fill:#ffffff">
        <path
           d="m 2.9375,-6.375 c 0,-0.25 0,-0.265625 -0.234375,-0.265625 C 2.078125,-6 1.203125,-6 0.890625,-6 v 0.3125 c 0.203125,0 0.78125,0 1.296875,-0.265625 v 5.171875 c 0,0.359375 -0.03125,0.46875 -0.921875,0.46875 h -0.3125 V 0 c 0.34375,-0.03125 1.203125,-0.03125 1.609375,-0.03125 0.390625,0 1.265625,0 1.609375,0.03125 v -0.3125 h -0.3125 c -0.90625,0 -0.921875,-0.109375 -0.921875,-0.46875 z m 0,0"
           id="path11"
           style="fill:#ffffff" />
      </g>
    </g>
  </g>
  <g
     inkscape:label=""
     transform="translate(62.933616,12.817625)"
     id="g17"
     style="fill:#ffffff">
    <g
       fill="#000000"
       fill-opacity="1"
       id="g16"
       transform="matrix(0.352778,0,0,0.352778,-0.84089,-0.624902)"
       style="fill:#ffffff">
      <g
         id="g15"
         transform="translate(1.993,8.4119997)"
         style="fill:#ffffff">
        <path
           d="m 4.578125,-3.1875 c 0,-0.796875 -0.046875,-1.59375 -0.390625,-2.328125 -0.453125,-0.96875 -1.28125,-1.125 -1.6875,-1.125 -0.609375,0 -1.328125,0.265625 -1.75,1.1875 -0.3125,0.6875 -0.359375,1.46875 -0.359375,2.265625 0,0.75 0.03125,1.640625 0.453125,2.40625 0.421875,0.796875 1.15625,1 1.640625,1 0.53125,0 1.296875,-0.203125 1.734375,-1.15625 0.3125,-0.6875 0.359375,-1.46875 0.359375,-2.25 z M 2.484375,0 C 2.09375,0 1.5,-0.25 1.328125,-1.203125 1.21875,-1.796875 1.21875,-2.71875 1.21875,-3.3125 c 0,-0.640625 0,-1.296875 0.078125,-1.828125 0.1875,-1.1875 0.9375,-1.28125 1.1875,-1.28125 0.328125,0 0.984375,0.1875 1.171875,1.171875 0.109375,0.5625 0.109375,1.3125 0.109375,1.9375 0,0.75 0,1.421875 -0.109375,2.0625 C 3.5,-0.296875 2.9375,0 2.484375,0 Z m 0,0"
           id="path14"
           style="fill:#ffffff" />
      </g>
    </g>
  </g>
  <path
     style="opacity:0.98;fill:none;stroke:#d08a28;stroke-width:0.2;stroke-dasharray:none;stroke-opacity:1;marker-end:url(#ArrowWide)"
     d="m 43.925653,38.351203 c -2.437832,1.43586 -4.875664,2.871721 -7.491788,2.979503 -2.616123,0.107783 -5.410427,-1.112463 -8.204787,-2.332734"
     id="path13"
     inkscape:path-effect="#path-effect13"
     inkscape:original-d="m 43.925653,38.351203 c -2.437833,1.435859 -4.875664,2.871721 -7.313496,4.307581 -2.794415,-1.220296 -5.588719,-2.440541 -8.383079,-3.660812" />
</svg>
